<svg width="187" height="22" viewBox="0 0 187 22" fill="none" xmlns="http://www.w3.org/2000/svg">
<path d="M6.87567 16.153C4.64926 16.153 2.94672 15.4986 1.76803 14.1898C0.589343 12.868 0 11.0667 0 8.78599C0 7.28279 0.307768 5.97396 0.923305 4.85951C1.55194 3.7321 2.40976 2.86387 3.49677 2.25481C4.58378 1.64575 5.81485 1.34122 7.18999 1.34122C7.76624 1.34122 8.32284 1.3801 8.8598 1.45785C9.39675 1.52265 10.0319 1.61336 10.7653 1.72999C11.3154 1.8207 11.6166 1.86605 11.669 1.86605L11.4529 5.87029H9.64559L9.0366 3.09065C8.89254 2.9481 8.6437 2.83147 8.2901 2.74076C7.93649 2.65005 7.48466 2.6047 6.93461 2.6047C5.8214 2.6047 4.92429 3.11657 4.24327 4.1403C3.57535 5.15108 3.24139 6.62189 3.24139 8.55274C3.24139 10.4188 3.56225 11.9414 4.20398 13.1207C4.84571 14.2999 5.78211 14.8895 7.01319 14.8895C7.60253 14.8895 8.05436 14.8377 8.36868 14.734C8.69609 14.6174 8.97112 14.4554 9.19376 14.2481L10.0581 12.246L11.7083 12.4015L11.3154 15.4144C11.0404 15.4403 10.7653 15.4921 10.4903 15.5699C10.2284 15.6347 10.0647 15.6735 9.99919 15.6865C9.47533 15.829 8.98421 15.9392 8.52583 16.0169C8.08055 16.1077 7.5305 16.153 6.87567 16.153Z" fill="#003E48"/>
<path d="M13.4214 12.9069C13.4214 11.7276 14.0173 10.8399 15.209 10.2438C16.4139 9.64775 17.9659 9.34322 19.8649 9.33026V8.88318C19.8649 8.35188 19.8059 7.9372 19.6881 7.63915C19.5833 7.3411 19.3803 7.1208 19.0791 6.97826C18.7909 6.82275 18.3653 6.745 17.8022 6.745C17.1604 6.745 16.5842 6.82923 16.0734 6.99769C15.5627 7.1532 15.0322 7.36054 14.4822 7.61971L13.8732 6.37568C14.0697 6.20721 14.3971 6.00636 14.8554 5.7731C15.3269 5.53984 15.8835 5.33898 16.5252 5.17052C17.167 4.9891 17.8284 4.89839 18.5094 4.89839C19.5178 4.89839 20.3036 5.02797 20.8667 5.28715C21.443 5.54632 21.8555 5.961 22.1044 6.53118C22.3532 7.10136 22.4776 7.86593 22.4776 8.82487V14.7729H23.5384V15.8614C23.2765 15.9262 22.9033 15.991 22.4187 16.0558C21.9341 16.1206 21.5085 16.153 21.1418 16.153C20.6965 16.153 20.3953 16.0882 20.2381 15.9586C20.0941 15.829 20.022 15.5634 20.022 15.1617V14.6368C19.6684 15.0256 19.21 15.3755 18.6469 15.6865C18.0837 15.9975 17.4486 16.153 16.7413 16.153C16.1389 16.153 15.5823 16.0299 15.0715 15.7837C14.5739 15.5245 14.1744 15.1552 13.8732 14.6757C13.572 14.1833 13.4214 13.5937 13.4214 12.9069ZM17.9986 14.5397C18.2736 14.5397 18.5879 14.4619 18.9416 14.3064C19.2952 14.1379 19.6029 13.9371 19.8649 13.7038V10.516C18.6862 10.516 17.8022 10.7168 17.2128 11.1186C16.6366 11.5073 16.3484 12.0127 16.3484 12.6347C16.3484 13.2567 16.4925 13.7297 16.7806 14.0537C17.0819 14.3777 17.4878 14.5397 17.9986 14.5397Z" fill="#47938A"/>
<path d="M26.2574 6.97826L25.0001 6.62837V5.28715L28.2612 4.87895H28.3201L28.8112 5.26771V6.02579L28.7916 6.49231C29.2499 6.06467 29.8458 5.69535 30.5792 5.38434C31.3126 5.07333 32.0526 4.91782 32.7991 4.91782C33.598 4.91782 34.2201 5.06685 34.6654 5.3649C35.1237 5.64999 35.4512 6.10354 35.6476 6.72556C35.844 7.34758 35.9423 8.18989 35.9423 9.25251V14.6174L37.1406 14.7729V15.9392H32.0722V14.7729L33.1331 14.6174V9.25251C33.1331 8.57865 33.0872 8.05383 32.9956 7.67803C32.9039 7.28927 32.7336 7.01065 32.4848 6.84219C32.2491 6.66077 31.9085 6.57006 31.4633 6.57006C30.7168 6.57006 29.9179 6.88755 29.0666 7.52252V14.598L30.2453 14.7729V15.9392H25.118V14.7729L26.2574 14.598V6.97826Z" fill="#47938A"/>
<path d="M38.6663 10.5937C38.6663 9.47928 38.8889 8.48794 39.3342 7.61971C39.7926 6.75148 40.4409 6.07763 41.2791 5.59816C42.1303 5.10573 43.1191 4.85951 44.2454 4.85951C44.7693 4.85951 45.2211 4.89839 45.6009 4.97614C45.9807 5.05389 46.4063 5.15756 46.8778 5.28715L47.4475 5.44265L47.3296 8.76656H45.6205L45.1294 6.62837C45.0508 6.29145 44.6645 6.12298 43.9704 6.12298C43.237 6.12298 42.6607 6.44047 42.2416 7.07545C41.8357 7.71042 41.6261 8.70176 41.613 10.0495C41.613 11.4749 41.8618 12.5699 42.3595 13.3345C42.8572 14.0861 43.5186 14.4619 44.3436 14.4619C45.339 14.4619 46.2557 14.1962 47.0939 13.6649L47.5457 14.6757C47.2052 15.0386 46.6814 15.3755 45.9742 15.6865C45.28 15.9975 44.527 16.153 43.715 16.153C42.0387 16.153 40.7748 15.6411 39.9236 14.6174C39.0854 13.5937 38.6663 12.2524 38.6663 10.5937Z" fill="#47938A"/>
<path d="M54.4519 16.153C52.7232 16.153 51.4332 15.6541 50.5819 14.6563C49.7437 13.6455 49.3247 12.2719 49.3247 10.5354C49.3247 9.36914 49.5408 8.35836 49.9729 7.50308C50.4182 6.64781 51.0403 5.9934 51.8392 5.53984C52.6381 5.08629 53.5614 4.85951 54.6091 4.85951C55.9188 4.85951 56.9272 5.20291 57.6344 5.88973C58.3416 6.56358 58.7083 7.529 58.7345 8.78599C58.7345 9.64127 58.6821 10.2762 58.5774 10.6909H52.1928C52.2452 11.8702 52.5268 12.7902 53.0375 13.4511C53.5483 14.0991 54.2751 14.423 55.2181 14.423C55.7289 14.423 56.2527 14.3388 56.7897 14.1703C57.3397 14.0019 57.7719 13.801 58.0862 13.5678L58.5774 14.6368C58.2237 15.0126 57.6475 15.3625 56.8486 15.6865C56.0628 15.9975 55.2639 16.153 54.4519 16.153ZM55.9842 9.52464C56.0104 9.1618 56.0235 8.88318 56.0235 8.6888C56.0235 6.9653 55.4407 6.10354 54.2751 6.10354C53.6334 6.10354 53.1358 6.35624 52.7821 6.86163C52.4285 7.36702 52.2321 8.25469 52.1928 9.52464H55.9842Z" fill="#47938A"/>
<path d="M60.6952 14.7923L61.9917 14.6368V6.97826L60.7344 6.62837V5.28715L63.7794 4.87895H63.8383L64.3294 5.26771V5.69535L64.2705 7.26983H64.3294C64.4211 7.01065 64.6372 6.69317 64.9777 6.31736C65.3182 5.9286 65.7439 5.59168 66.2546 5.30658C66.7785 5.00853 67.3416 4.85951 67.9441 4.85951C68.2322 4.85951 68.481 4.89839 68.6906 4.97614V7.89184C68.2977 7.61971 67.8197 7.48365 67.2565 7.48365C66.3005 7.48365 65.4688 7.73634 64.7616 8.24173V14.6174L67.0404 14.7923V15.9392H60.6952V14.7923Z" fill="#47938A"/>
<path d="M72.5941 2.95458L70.4724 2.70189V1.49673H76.6016L78.9393 9.85509L79.4894 12.1293L79.9608 9.85509L82.2789 1.49673H88.3492V2.70189L86.2079 2.95458L87.7795 14.5591L89.3707 14.7729V15.9392H83.104V14.7729L84.8328 14.5785L83.9684 6.06467L83.5951 2.50751L82.8683 5.50097L80.0198 15.3366H77.9374L75.03 6.00635L74.0281 2.50751L73.7335 6.06467L72.987 14.5785L74.9711 14.7729V15.9392H69.5098V14.7729L71.16 14.5785L72.5941 2.95458Z" fill="#003E48"/>
<path d="M90.6987 10.5549C90.6987 9.33674 90.941 8.30004 91.4256 7.44477C91.9232 6.5895 92.5846 5.94804 93.4097 5.5204C94.2348 5.07981 95.1319 4.85951 96.101 4.85951C97.7512 4.85951 99.0216 5.3649 99.9121 6.37568C100.816 7.3735 101.268 8.73416 101.268 10.4577C101.268 11.6887 101.019 12.7384 100.521 13.6066C100.037 14.4619 99.3817 15.1034 98.5566 15.531C97.7446 15.9457 96.8475 16.153 95.8653 16.153C94.2282 16.153 92.9579 15.6541 92.0542 14.6563C91.1505 13.6455 90.6987 12.2784 90.6987 10.5549ZM96.0224 14.8895C97.5024 14.8895 98.2423 13.477 98.2423 10.652C98.2423 9.17475 98.0655 8.05383 97.7119 7.28927C97.3583 6.51174 96.782 6.12298 95.9831 6.12298C94.464 6.12298 93.7044 7.53548 93.7044 10.3605C93.7044 11.8378 93.8877 12.9652 94.2544 13.7427C94.6342 14.5073 95.2236 14.8895 96.0224 14.8895Z" fill="#47938A"/>
<path d="M107.552 16.153C106.74 16.153 106.013 15.9651 105.372 15.5893C104.73 15.2005 104.219 14.6044 103.839 13.801C103.459 12.9976 103.27 11.9933 103.27 10.7881C103.27 9.69958 103.492 8.70824 103.937 7.81409C104.396 6.90698 105.064 6.18778 105.941 5.65647C106.819 5.12516 107.873 4.85951 109.104 4.85951C109.602 4.85951 110.073 4.91135 110.518 5.01501V1.72999L108.593 1.45785V0.388762L112.64 0H112.699L113.249 0.4082V14.7535H114.31V15.8614C113.367 16.0558 112.588 16.153 111.972 16.153C111.553 16.153 111.252 16.0817 111.069 15.9392C110.898 15.8096 110.813 15.544 110.813 15.1422V14.598C110.473 15.0515 110.008 15.4273 109.418 15.7254C108.829 16.0105 108.207 16.153 107.552 16.153ZM108.574 14.5397C109.006 14.5397 109.386 14.4554 109.713 14.287C110.054 14.1055 110.322 13.8917 110.518 13.6455V6.57006C110.427 6.44047 110.23 6.33032 109.929 6.23961C109.641 6.1489 109.327 6.10354 108.986 6.10354C108.148 6.10354 107.474 6.46639 106.963 7.19207C106.465 7.9048 106.216 9.05165 106.216 10.6326C106.216 11.9544 106.432 12.9393 106.865 13.5872C107.297 14.2222 107.866 14.5397 108.574 14.5397Z" fill="#47938A"/>
<path d="M121.087 16.153C119.358 16.153 118.068 15.6541 117.217 14.6563C116.379 13.6455 115.96 12.2719 115.96 10.5354C115.96 9.36914 116.176 8.35836 116.608 7.50308C117.053 6.64781 117.675 5.9934 118.474 5.53984C119.273 5.08629 120.196 4.85951 121.244 4.85951C122.554 4.85951 123.562 5.20291 124.269 5.88973C124.977 6.56358 125.343 7.529 125.369 8.78599C125.369 9.64127 125.317 10.2762 125.212 10.6909H118.828C118.88 11.8702 119.162 12.7902 119.672 13.4511C120.183 14.0991 120.91 14.423 121.853 14.423C122.364 14.423 122.888 14.3388 123.425 14.1703C123.975 14.0019 124.407 13.801 124.721 13.5678L125.212 14.6368C124.859 15.0126 124.282 15.3625 123.484 15.6865C122.698 15.9975 121.899 16.153 121.087 16.153ZM122.619 9.52464C122.645 9.1618 122.658 8.88318 122.658 8.6888C122.658 6.9653 122.076 6.10354 120.91 6.10354C120.268 6.10354 119.771 6.35624 119.417 6.86163C119.063 7.36702 118.867 8.25469 118.828 9.52464H122.619Z" fill="#47938A"/>
<path d="M128.469 1.72999L127.016 1.47729V0.427637L130.65 0H130.689L131.22 0.369323V14.6174L132.654 14.7729V15.9392H127.094V14.7729L128.469 14.598V1.72999Z" fill="#47938A"/>
<path d="M136.58 14.3453C136.684 14.5008 136.92 14.6498 137.287 14.7923C137.667 14.9219 138.047 14.9867 138.426 14.9867C139.042 14.9867 139.5 14.8636 139.801 14.6174C140.116 14.3582 140.273 14.0213 140.273 13.6066C140.273 13.179 140.083 12.8356 139.703 12.5764C139.323 12.3043 138.682 11.9738 137.778 11.5851L137.228 11.3518C136.324 10.976 135.65 10.5225 135.205 9.99115C134.759 9.45985 134.537 8.77304 134.537 7.93072C134.537 7.34758 134.713 6.82923 135.067 6.37568C135.421 5.90916 135.918 5.54632 136.56 5.28715C137.202 5.02797 137.942 4.89839 138.78 4.89839C139.395 4.89839 139.919 4.93726 140.351 5.01501C140.797 5.09277 141.262 5.19644 141.746 5.32602C142.008 5.41673 142.205 5.46857 142.336 5.48153V8.02791H140.784L140.332 6.55062C140.253 6.42103 140.076 6.3044 139.801 6.20073C139.526 6.09707 139.212 6.04523 138.859 6.04523C138.322 6.04523 137.889 6.16186 137.562 6.39511C137.248 6.61541 137.09 6.92642 137.09 7.32814C137.09 7.69098 137.202 7.99551 137.424 8.24173C137.647 8.47499 137.889 8.65641 138.151 8.78599C138.413 8.91558 138.898 9.1294 139.605 9.42745C140.312 9.7255 140.895 10.0106 141.353 10.2827C141.825 10.5549 142.211 10.9112 142.512 11.3518C142.827 11.7795 142.984 12.3043 142.984 12.9263C142.984 13.8852 142.604 14.6628 141.845 15.2589C141.085 15.855 139.991 16.153 138.564 16.153C137.896 16.153 137.293 16.0947 136.757 15.9781C136.233 15.8614 135.624 15.7059 134.93 15.5116L134.497 15.3755V12.8097H136.128L136.58 14.3453Z" fill="#47938A"/>
<path d="M146.826 16.1141C146.42 16.1141 146.066 15.9781 145.765 15.7059C145.463 15.4208 145.313 15.0645 145.313 14.6368C145.313 14.1574 145.483 13.7686 145.824 13.4706C146.177 13.1596 146.603 13.004 147.101 13.004C147.572 13.004 147.945 13.1531 148.22 13.4511C148.495 13.7362 148.633 14.0796 148.633 14.4813C148.633 14.9867 148.463 15.3884 148.122 15.6865C147.795 15.9716 147.362 16.1141 146.826 16.1141Z" fill="#47938A"/>
<path d="M157.217 16.153C155.082 16.153 153.484 15.4921 152.424 14.1703C151.363 12.8485 150.832 11.0473 150.832 8.76656C150.832 7.27631 151.107 5.96748 151.658 4.84007C152.221 3.71267 153.006 2.84443 154.015 2.23537C155.023 1.62632 156.182 1.32179 157.492 1.32179C159.653 1.32179 161.27 1.95676 162.344 3.22671C163.431 4.48371 163.975 6.24609 163.975 8.51386C163.975 10.0171 163.687 11.3518 163.11 12.5181C162.547 13.6714 161.755 14.5656 160.733 15.2005C159.712 15.8355 158.54 16.153 157.217 16.153ZM157.413 2.50751C156.34 2.50751 155.501 3.03233 154.899 4.08199C154.296 5.13164 153.995 6.68669 153.995 8.74712C153.995 10.7816 154.283 12.3302 154.86 13.3928C155.449 14.4425 156.287 14.9673 157.374 14.9673C158.435 14.9673 159.267 14.4165 159.869 13.3151C160.471 12.2006 160.773 10.6002 160.773 8.51386C160.773 6.49231 160.485 4.9891 159.908 4.00424C159.332 3.00642 158.5 2.50751 157.413 2.50751Z" fill="#47938A"/>
<path d="M165.812 14.7923L167.109 14.6368V6.97826L165.852 6.62837V5.28715L168.897 4.87895H168.956L169.447 5.26771V5.69535L169.388 7.26983H169.447C169.538 7.01065 169.754 6.69317 170.095 6.31736C170.435 5.9286 170.861 5.59168 171.372 5.30658C171.896 5.00853 172.459 4.85951 173.061 4.85951C173.349 4.85951 173.598 4.89839 173.808 4.97614V7.89184C173.415 7.61971 172.937 7.48365 172.374 7.48365C171.418 7.48365 170.586 7.73634 169.879 8.24173V14.6174L172.158 14.7923V15.9392H165.812V14.7923Z" fill="#47938A"/>
<path d="M180.206 21.1875C178.451 21.1875 177.181 20.9153 176.395 20.3711C175.609 19.8268 175.216 19.0882 175.216 18.1551C175.216 17.6238 175.393 17.1184 175.747 16.639C176.113 16.1724 176.552 15.8226 177.063 15.5893C176.461 15.2394 176.159 14.6822 176.159 13.9176C176.159 13.477 176.303 13.0624 176.592 12.6736C176.88 12.2719 177.253 11.9609 177.711 11.7406C176.991 11.4684 176.454 11.0538 176.1 10.4965C175.747 9.93932 175.57 9.27843 175.57 8.51386C175.57 7.77522 175.786 7.13376 176.218 6.5895C176.664 6.03227 177.253 5.60463 177.986 5.30658C178.733 5.00853 179.538 4.85951 180.403 4.85951C181.935 4.85951 183.074 5.15108 183.821 5.73422C183.991 5.51392 184.279 5.30658 184.685 5.1122C185.091 4.91782 185.51 4.82063 185.942 4.82063H186.63V6.93938H184.607C184.803 7.35406 184.901 7.79465 184.901 8.26117C184.914 9.44041 184.495 10.3864 183.644 11.0991C182.793 11.7989 181.627 12.1488 180.147 12.1488C179.532 12.1488 179.014 12.1034 178.595 12.0127C178.464 12.1812 178.36 12.3626 178.281 12.557C178.215 12.7384 178.183 12.9004 178.183 13.0429C178.183 13.4706 178.333 13.7621 178.635 13.9176C178.949 14.0731 179.506 14.1509 180.304 14.1509H182.406C185.078 14.1509 186.414 15.1098 186.414 17.0277C186.414 17.8312 186.126 18.5504 185.55 19.1853C184.973 19.8203 184.207 20.3128 183.251 20.6626C182.295 21.0125 181.28 21.1875 180.206 21.1875ZM180.344 10.9436C181.562 10.9436 182.171 10.1207 182.171 8.47499C182.171 7.63267 182.013 7.01713 181.699 6.62837C181.398 6.22665 180.933 6.02579 180.304 6.02579C179.689 6.02579 179.211 6.22665 178.87 6.62837C178.543 7.01713 178.379 7.60675 178.379 8.39723C178.379 10.0948 179.034 10.9436 180.344 10.9436ZM180.501 19.8462C181.326 19.8462 182.04 19.6454 182.642 19.2437C183.245 18.8549 183.546 18.3106 183.546 17.6109C183.546 17.0536 183.395 16.6519 183.094 16.4057C182.806 16.1595 182.282 16.0364 181.522 16.0364H179.381C179.054 16.0364 178.752 16.0169 178.477 15.9781C178.124 16.4446 177.947 17.0018 177.947 17.6497C177.947 18.3625 178.143 18.9067 178.536 19.2825C178.929 19.6583 179.584 19.8462 180.501 19.8462Z" fill="#47938A"/>
</svg>
